<?xml version="1.0" standalone="no"?>
<!DOCTYPE svg PUBLIC "-//W3C//DTD SVG 20010904//EN"
 "http://www.w3.org/TR/2001/REC-SVG-20010904/DTD/svg10.dtd">
<svg version="1.0" xmlns="http://www.w3.org/2000/svg"
 width="354.000000pt" height="354.000000pt" viewBox="0 0 354.000000 354.000000"
 preserveAspectRatio="xMidYMid meet">

<g transform="translate(0.000000,354.000000) scale(0.100000,-0.100000)"
fill="#000000" stroke="none">
<path d="M2110 3109 l0 -171 -57 50 c-150 129 -339 218 -547 259 -126 24 -348
21 -461 -7 -49 -12 -94 -26 -99 -30 -4 -4 15 -70 42 -147 28 -76 74 -207 104
-291 48 -137 55 -152 73 -147 48 14 185 17 236 5 260 -60 438 -314 399 -568
-31 -194 -194 -373 -378 -411 -178 -37 -353 17 -482 148 -149 152 -188 359
-106 562 13 32 20 59 16 59 -4 0 -63 37 -131 81 -68 45 -162 106 -209 137 -47
30 -101 65 -121 78 -19 13 -40 24 -47 24 -6 0 -36 -51 -66 -112 -104 -217
-138 -441 -101 -678 40 -264 133 -447 320 -634 226 -226 491 -336 810 -336
215 1 417 58 589 168 42 27 169 125 196 151 13 13 15 -46 18 -527 l2 -542 190
0 190 0 0 125 c0 69 2 125 3 125 2 0 30 -9 63 -21 46 -16 84 -21 174 -21 100
-1 126 2 197 26 308 103 485 412 418 730 -37 176 -172 346 -335 424 -47 22
-109 45 -138 51 -105 22 -241 12 -359 -24 -23 -7 -23 -7 -23 109 0 64 2 116 3
116 2 0 39 -9 82 -20 154 -39 329 -18 464 57 39 21 97 68 141 112 129 130 187
284 177 466 -14 263 -178 475 -432 560 -122 42 -296 37 -417 -10 -17 -7 -18 3
-18 119 l0 126 -190 0 -190 0 0 -171z m775 -417 c175 -90 197 -335 40 -454
-113 -85 -261 -74 -355 28 -55 60 -73 105 -73 184 -1 111 55 197 158 247 42
20 61 23 120 20 45 -2 84 -11 110 -25z m-51 -1373 c63 -16 135 -75 168 -138
73 -139 4 -319 -145 -376 -56 -21 -155 -17 -208 9 -170 81 -206 307 -71 439
67 66 161 90 256 66z"/>
<path d="M1280 2445 c-101 -32 -172 -130 -173 -240 -1 -146 107 -255 251 -255
76 0 116 16 172 67 145 130 91 373 -94 428 -60 18 -97 18 -156 0z"/>
</g>
</svg>
